<svg xmlns="http://www.w3.org/2000/svg" xmlns:xlink="http://www.w3.org/1999/xlink" width="500" zoomAndPan="magnify" viewBox="0 0 375 374.999991" height="500" preserveAspectRatio="xMidYMid meet" version="1.0"><defs><g/><clipPath id="15dfca9e31"><path d="M 76.445312 94.457031 L 298.445312 94.457031 L 298.445312 205.410156 L 76.445312 205.410156 Z M 76.445312 94.457031 " clip-rule="nonzero"/></clipPath><clipPath id="ffdcd91d4a"><path d="M 122.101562 126.003906 L 237.601562 126.003906 L 237.601562 205.503906 L 122.101562 205.503906 Z M 122.101562 126.003906 " clip-rule="nonzero"/></clipPath><clipPath id="a0d7864e6c"><path d="M 219.640625 149.359375 L 305.644531 149.359375 L 305.644531 205.609375 L 219.640625 205.609375 Z M 219.640625 149.359375 " clip-rule="nonzero"/></clipPath><clipPath id="621e45812f"><path d="M 101.308594 155 L 142 155 L 142 206 L 101.308594 206 Z M 101.308594 155 " clip-rule="nonzero"/></clipPath><clipPath id="2450b3ce48"><path d="M 180 116 L 212.703125 116 L 212.703125 149.714844 L 180 149.714844 Z M 180 116 " clip-rule="nonzero"/></clipPath><clipPath id="226ab10666"><path d="M 123 211.929688 L 163.445312 211.929688 L 163.445312 250 L 123 250 Z M 123 211.929688 " clip-rule="nonzero"/></clipPath></defs><rect x="-37.5" width="450" fill="#ffffff" y="-37.499999" height="449.999989" fill-opacity="1"/><rect x="-37.5" width="450" fill="#ffe4bd" y="-37.499999" height="449.999989" fill-opacity="1"/><g clip-path="url(#15dfca9e31)"><path fill="#ffa07a" d="M 298.453125 205.457031 C 298.453125 144.117188 248.742188 94.410156 187.40625 94.410156 C 126.066406 94.410156 76.546875 144.117188 76.546875 205.457031 Z M 298.453125 205.457031 " fill-opacity="1" fill-rule="nonzero"/></g><g clip-path="url(#ffdcd91d4a)"><path fill="#ffffff" d="M 142.503906 126.125 C 141.652344 126.1875 140.871094 126.273438 140.769531 126.347656 C 140.667969 126.40625 140.167969 126.523438 139.667969 126.582031 C 137.785156 126.863281 135.945312 127.640625 134.269531 128.890625 C 133.738281 129.273438 133.03125 129.789062 132.695312 130.011719 C 132.089844 130.4375 131.871094 130.789062 131.695312 131.703125 C 131.636719 131.96875 131.207031 132.671875 130.722656 133.261719 C 129.929688 134.261719 129.738281 134.394531 128.191406 135.171875 C 127.28125 135.628906 126.425781 135.996094 126.296875 135.996094 C 126.175781 135.996094 125.984375 136.101562 125.882812 136.21875 C 125.78125 136.335938 125.441406 136.511719 125.105469 136.601562 C 124.78125 136.6875 124.265625 136.910156 123.957031 137.117188 C 123.648438 137.308594 123.292969 137.46875 123.175781 137.46875 C 123.074219 137.46875 122.824219 137.585938 122.632812 137.746094 C 122.207031 138.085938 122.175781 138.867188 122.574219 139.894531 C 122.71875 140.292969 122.984375 141.015625 123.148438 141.46875 C 123.324219 141.941406 123.558594 142.351562 123.675781 142.410156 C 124.808594 142.898438 127.855469 143.101562 129.765625 142.835938 C 130.589844 142.71875 131.339844 142.617188 131.445312 142.617188 C 131.722656 142.617188 131.648438 142.882812 131.3125 143.175781 C 131.136719 143.308594 130.914062 143.515625 130.8125 143.601562 C 130.695312 143.707031 130.546875 143.792969 130.472656 143.792969 C 130.207031 143.792969 128.605469 145.148438 128.414062 145.53125 C 128.296875 145.75 127.957031 146.101562 127.632812 146.324219 C 127.265625 146.589844 127.058594 146.855469 127.058594 147.042969 C 127.058594 147.324219 127.117188 147.355469 127.574219 147.28125 C 128.03125 147.207031 128.089844 147.234375 128.089844 147.53125 C 128.089844 148.605469 129.589844 149.605469 131.179688 149.589844 C 132.0625 149.589844 132.265625 149.515625 133.972656 148.617188 C 136.636719 147.222656 138.488281 146.605469 138.753906 147.03125 C 138.902344 147.25 139.800781 147.207031 140.003906 146.957031 C 140.253906 146.664062 140.34375 146.675781 140.8125 147.117188 C 141.210938 147.484375 141.300781 147.5 142.167969 147.414062 L 143.109375 147.308594 L 143.949219 148.058594 C 144.402344 148.457031 144.828125 148.796875 144.890625 148.796875 C 144.949219 148.796875 145.140625 149.074219 145.316406 149.414062 C 145.492188 149.765625 145.726562 150.105469 145.816406 150.191406 C 145.917969 150.265625 146.050781 150.574219 146.09375 150.855469 C 146.417969 152.589844 146.449219 152.972656 146.316406 153.339844 C 146.125 153.839844 145.59375 156.328125 145.492188 157.222656 C 145.34375 158.460938 145.683594 159.636719 146.492188 160.738281 C 146.875 161.285156 147.34375 162.003906 147.507812 162.34375 C 147.683594 162.667969 148.097656 163.328125 148.433594 163.800781 C 149.300781 165.019531 150.15625 166.535156 150.15625 166.859375 C 150.15625 167.375 149.566406 168.492188 149.007812 169.066406 C 148.199219 169.875 147.082031 170.816406 146.800781 170.933594 C 146.667969 170.976562 146.285156 171.230469 145.960938 171.464844 C 145.640625 171.714844 144.785156 172.242188 144.050781 172.65625 C 143.328125 173.066406 142.695312 173.433594 142.652344 173.492188 C 142.609375 173.539062 142.386719 173.683594 142.152344 173.804688 C 141.550781 174.113281 140.621094 175.214844 140.167969 176.15625 C 139.828125 176.890625 139.785156 177.113281 139.800781 178.730469 C 139.800781 180.214844 139.84375 180.570312 140.09375 180.9375 C 140.535156 181.65625 141.683594 183.070312 141.800781 183.070312 C 141.875 183.070312 141.917969 183.160156 141.917969 183.277344 C 141.917969 183.394531 141.976562 183.511719 142.035156 183.542969 C 142.285156 183.644531 143.167969 185.277344 143.476562 186.1875 C 143.535156 186.335938 143.625 186.453125 143.683594 186.453125 C 143.726562 186.453125 144.125 186.761719 144.535156 187.144531 C 145.492188 188.058594 146.007812 188.441406 146.667969 188.75 C 146.964844 188.894531 147.214844 189.058594 147.214844 189.132812 C 147.214844 189.191406 147.375 189.25 147.566406 189.25 C 147.773438 189.25 148.183594 189.394531 148.492188 189.585938 C 148.976562 189.867188 149.300781 189.910156 150.890625 189.953125 C 152.242188 190 152.804688 189.953125 152.996094 189.808594 C 153.289062 189.585938 153.566406 188.144531 153.390625 187.777344 C 153.246094 187.511719 152.746094 186.128906 152.554688 185.496094 C 152.449219 185.113281 152.347656 185.054688 151.875 185.011719 C 151.582031 184.984375 151.332031 184.910156 151.332031 184.835938 C 151.332031 184.628906 150.15625 184.128906 149.859375 184.203125 C 149.667969 184.261719 149.566406 184.203125 149.566406 184.070312 C 149.566406 183.761719 148.714844 182.789062 148.214844 182.539062 C 147.992188 182.421875 147.800781 182.21875 147.800781 182.070312 C 147.800781 181.65625 147.082031 180.714844 146.773438 180.714844 C 146.59375 180.714844 146.449219 180.585938 146.390625 180.363281 C 146.242188 179.789062 146.375 179.496094 146.832031 179.378906 C 147.066406 179.304688 147.433594 179.082031 147.65625 178.878906 C 148.167969 178.378906 149.097656 177.921875 149.582031 177.921875 C 149.800781 177.921875 150.007812 177.863281 150.039062 177.804688 C 150.066406 177.746094 150.609375 177.539062 151.257812 177.347656 C 152.566406 176.980469 153.773438 176.554688 155.9375 175.699219 C 156.714844 175.375 157.539062 175.125 157.730469 175.125 C 157.9375 175.125 158.097656 175.082031 158.097656 175.007812 C 158.097656 174.949219 158.496094 174.714844 158.996094 174.480469 C 159.480469 174.246094 159.921875 173.964844 159.96875 173.863281 C 160.070312 173.597656 160.453125 173.597656 160.453125 173.863281 C 160.453125 174.171875 160.15625 174.980469 159.644531 176.082031 C 159.378906 176.640625 159.113281 177.273438 159.054688 177.480469 C 158.996094 177.671875 158.847656 177.921875 158.746094 178.039062 C 158.628906 178.140625 158.539062 178.347656 158.539062 178.496094 C 158.539062 178.628906 158.480469 178.804688 158.40625 178.878906 C 158.347656 178.964844 158.039062 179.597656 157.746094 180.289062 C 157.289062 181.378906 157.214844 181.71875 157.214844 182.671875 C 157.214844 183.554688 157.289062 183.910156 157.539062 184.351562 C 157.714844 184.660156 157.9375 184.953125 158.023438 185.011719 C 158.113281 185.070312 158.378906 185.410156 158.613281 185.777344 C 158.835938 186.128906 159.15625 186.453125 159.335938 186.496094 C 159.511719 186.542969 160.039062 186.734375 160.527344 186.9375 C 161.171875 187.203125 161.820312 187.335938 162.921875 187.410156 C 163.746094 187.46875 164.425781 187.570312 164.425781 187.628906 C 164.425781 187.6875 164.835938 187.777344 165.351562 187.820312 C 165.851562 187.851562 166.910156 188.027344 167.71875 188.203125 C 168.511719 188.378906 169.675781 188.558594 170.292969 188.585938 C 170.910156 188.617188 171.601562 188.703125 171.824219 188.792969 C 172.058594 188.882812 172.398438 188.953125 172.601562 188.953125 C 172.792969 188.953125 172.957031 189.011719 172.957031 189.101562 C 172.957031 189.191406 173.632812 189.25 174.691406 189.25 L 176.414062 189.234375 L 176.675781 188.675781 C 177.015625 187.9375 177 186.792969 176.617188 185.792969 C 176.265625 184.835938 175.53125 183.953125 175.089844 183.953125 C 174.925781 183.953125 174.617188 183.863281 174.414062 183.746094 C 174.191406 183.644531 173.839844 183.554688 173.601562 183.542969 C 173.382812 183.542969 173.160156 183.46875 173.132812 183.378906 C 173.058594 183.160156 172.410156 183.171875 172.308594 183.394531 C 172.234375 183.542969 172.207031 183.542969 172.132812 183.394531 C 172.03125 183.160156 171.675781 183.160156 171.601562 183.394531 C 171.558594 183.527344 171.46875 183.511719 171.277344 183.335938 C 170.957031 182.996094 169.925781 182.730469 169.441406 182.851562 C 168.808594 182.996094 168.25 183.246094 168.25 183.378906 C 168.25 183.453125 167.984375 183.511719 167.660156 183.511719 C 167.335938 183.511719 167.070312 183.453125 167.070312 183.394531 C 167.070312 183.320312 166.703125 183.160156 166.261719 183.011719 C 165.820312 182.878906 165.453125 182.703125 165.453125 182.628906 C 165.453125 182.539062 166.128906 181.347656 166.96875 179.953125 C 167.808594 178.554688 168.691406 177.054688 168.910156 176.628906 C 169.144531 176.1875 169.527344 175.671875 169.765625 175.480469 C 170.175781 175.140625 170.25 175.125 172.734375 175.125 C 174.132812 175.125 175.308594 175.066406 175.339844 174.996094 C 175.441406 174.699219 181.457031 173.671875 183.078125 173.65625 C 183.578125 173.65625 183.988281 173.597656 183.988281 173.507812 C 183.988281 173.421875 184.414062 173.363281 184.988281 173.363281 C 185.621094 173.363281 186.386719 173.230469 187.152344 172.992188 C 187.796875 172.789062 188.488281 172.625 188.695312 172.625 C 188.902344 172.625 189.253906 172.523438 189.476562 172.40625 C 189.710938 172.289062 190.402344 172.109375 191.019531 172.023438 C 191.636719 171.933594 192.519531 171.816406 192.960938 171.742188 C 193.402344 171.667969 194.019531 171.609375 194.328125 171.609375 L 194.875 171.597656 L 194.875 172.332031 C 194.875 173.332031 196.316406 176.921875 197.023438 177.699219 C 197.183594 177.878906 197.523438 178.4375 197.773438 178.953125 C 198.035156 179.480469 198.683594 180.363281 199.214844 180.921875 C 199.742188 181.480469 200.171875 181.996094 200.171875 182.054688 C 200.171875 182.128906 200.257812 182.1875 200.359375 182.1875 C 200.539062 182.1875 201.640625 183.128906 201.640625 183.289062 C 201.640625 183.496094 202.582031 184.542969 202.773438 184.542969 C 202.875 184.542969 202.964844 184.613281 202.964844 184.703125 C 202.964844 184.792969 203.246094 185.113281 203.582031 185.410156 C 203.921875 185.703125 204.316406 186.042969 204.449219 186.1875 C 204.582031 186.320312 204.832031 186.46875 204.996094 186.511719 C 205.273438 186.601562 207.378906 188.617188 207.835938 189.234375 C 207.964844 189.410156 208.15625 189.824219 208.273438 190.175781 C 208.378906 190.515625 208.511719 190.824219 208.554688 190.867188 C 208.597656 190.910156 208.761719 191.324219 208.894531 191.792969 C 209.15625 192.632812 209.128906 193.410156 208.835938 193.589844 C 208.761719 193.648438 208.703125 193.867188 208.703125 194.117188 C 208.703125 194.351562 208.644531 194.542969 208.554688 194.542969 C 208.480469 194.542969 208.40625 194.617188 208.40625 194.707031 C 208.40625 194.882812 207.523438 196.222656 207.347656 196.28125 C 207.289062 196.308594 207.230469 196.382812 207.230469 196.457031 C 207.230469 196.617188 204.378906 199.488281 203.90625 199.796875 C 203.625 199.972656 203.097656 200.0625 201.921875 200.105469 C 201.039062 200.148438 200.316406 200.222656 200.316406 200.28125 C 200.316406 200.355469 200.066406 200.441406 199.757812 200.503906 C 199.359375 200.5625 198.949219 200.824219 198.285156 201.445312 C 197.492188 202.179688 197.375 202.355469 197.375 202.828125 C 197.375 203.195312 197.300781 203.371094 197.167969 203.371094 C 196.917969 203.371094 196.199219 204.195312 196.199219 204.488281 C 196.199219 204.605469 196.316406 204.753906 196.464844 204.796875 C 196.59375 204.855469 196.800781 205.019531 196.90625 205.152344 C 197.007812 205.296875 197.375 205.460938 197.726562 205.503906 C 199.625 205.796875 207.039062 205.402344 207.820312 204.972656 C 208.644531 204.519531 208.894531 204.164062 208.820312 203.546875 C 208.746094 203.046875 208.804688 202.898438 209.230469 202.429688 C 209.496094 202.136719 209.777344 201.898438 209.847656 201.898438 C 209.9375 201.898438 210.039062 201.722656 210.085938 201.515625 C 210.144531 201.3125 210.9375 200.382812 211.863281 199.457031 C 212.792969 198.515625 213.554688 197.675781 213.554688 197.589844 C 213.554688 197.5 213.835938 197.148438 214.1875 196.824219 C 214.527344 196.5 214.953125 195.925781 215.128906 195.542969 C 215.320312 195.148438 215.527344 194.839844 215.617188 194.839844 C 215.6875 194.839844 215.761719 194.734375 215.761719 194.617188 C 215.761719 194.308594 216.644531 192.601562 216.96875 192.277344 C 217.234375 192.042969 217.25 191.851562 217.191406 190.453125 L 217.117188 188.882812 L 216.441406 188.25 C 216.070312 187.894531 215.761719 187.558594 215.761719 187.46875 C 215.761719 187.394531 215.5 187.058594 215.175781 186.734375 C 214.851562 186.394531 214.585938 186.054688 214.585938 185.984375 C 214.585938 185.910156 214.367188 185.644531 214.101562 185.378906 C 213.570312 184.878906 212.96875 183.613281 212.96875 183.011719 C 212.96875 182.804688 212.835938 182.527344 212.6875 182.378906 C 212.527344 182.230469 212.277344 181.71875 212.113281 181.230469 C 211.863281 180.464844 211.851562 180.144531 211.953125 178.730469 C 212.070312 177.15625 212.378906 175.996094 212.777344 175.597656 C 212.878906 175.496094 212.96875 175.304688 212.96875 175.199219 C 212.96875 175.007812 213.484375 174.125 213.851562 173.699219 C 213.925781 173.597656 213.996094 173.449219 213.996094 173.363281 C 213.996094 173.273438 214.101562 173.097656 214.21875 172.980469 C 214.335938 172.847656 214.4375 172.597656 214.4375 172.40625 C 214.4375 172.214844 214.644531 171.625 214.878906 171.082031 C 215.128906 170.539062 215.320312 170.007812 215.320312 169.890625 C 215.320312 169.773438 215.425781 169.640625 215.542969 169.597656 C 215.660156 169.535156 215.761719 169.417969 215.761719 169.300781 C 215.761719 169.183594 215.925781 168.84375 216.117188 168.535156 C 216.292969 168.242188 216.5 167.84375 216.558594 167.667969 C 216.617188 167.476562 216.761719 167.242188 216.867188 167.125 C 217.25 166.742188 217.410156 163.875 217.21875 161.078125 C 217.132812 159.695312 217 158.535156 216.925781 158.488281 C 216.851562 158.445312 216.75 158.078125 216.691406 157.664062 C 216.617188 157.019531 216.644531 156.871094 216.925781 156.652344 C 217.085938 156.503906 217.234375 156.296875 217.234375 156.210938 C 217.234375 156.105469 217.453125 155.855469 217.734375 155.636719 C 218.011719 155.414062 218.558594 154.945312 218.953125 154.589844 C 219.335938 154.238281 219.75 153.945312 219.851562 153.945312 C 219.941406 153.945312 220.027344 153.886719 220.027344 153.8125 C 220.027344 153.695312 221.515625 152.445312 222.324219 151.882812 C 222.5 151.765625 222.925781 151.296875 223.28125 150.855469 C 223.984375 149.957031 224.398438 149.546875 225.75 148.355469 C 226.265625 147.914062 226.957031 147.28125 227.296875 146.941406 C 227.648438 146.605469 228.03125 146.28125 228.148438 146.207031 C 228.28125 146.132812 228.589844 145.824219 228.824219 145.515625 C 229.53125 144.632812 231.3125 143.101562 232.0625 142.75 C 232.445312 142.558594 232.839844 142.324219 232.945312 142.21875 C 233.046875 142.117188 233.238281 142.027344 233.355469 142.027344 C 233.5625 142.027344 234.855469 141.367188 236.136719 140.617188 C 236.785156 140.25 237.238281 139.644531 237.238281 139.160156 C 237.238281 139.011719 237.09375 138.941406 236.769531 138.941406 C 236.503906 138.941406 235.914062 138.808594 235.460938 138.660156 C 234.621094 138.378906 233.679688 138.425781 232.898438 138.777344 C 232.738281 138.851562 232.179688 139 231.648438 139.101562 C 230.707031 139.277344 228.988281 139.96875 228.5625 140.335938 C 228.441406 140.441406 228.121094 140.585938 227.871094 140.675781 C 227.355469 140.851562 226.398438 141.515625 226.117188 141.882812 C 226.015625 142 225.574219 142.484375 225.117188 142.957031 C 224.664062 143.441406 224.292969 143.910156 224.292969 144.027344 C 224.292969 144.148438 224.207031 144.234375 224.105469 144.234375 C 224 144.234375 223.675781 144.46875 223.398438 144.765625 C 222.925781 145.25 221.292969 146.441406 221.074219 146.441406 C 220.941406 146.441406 220.425781 147.03125 220.117188 147.5 C 219.96875 147.734375 219.765625 147.914062 219.660156 147.914062 C 219.542969 147.914062 219.234375 148.132812 218.953125 148.382812 C 218.292969 149 218.042969 149.179688 217.277344 149.53125 C 216.351562 149.972656 213.703125 150.707031 213.042969 150.707031 C 211.96875 150.691406 209.980469 150.148438 208.1875 149.382812 C 204.421875 147.734375 200.433594 146.722656 196.34375 146.324219 C 194.019531 146.101562 187.5625 146.132812 184.355469 146.382812 C 180.824219 146.664062 179.722656 146.589844 178.457031 146 C 177.308594 145.472656 176.132812 145.117188 175.546875 145.117188 C 175.058594 145.117188 172.882812 144.339844 172.515625 144.027344 C 171.839844 143.46875 171.058594 143.175781 169.957031 143.058594 C 168.085938 142.851562 167.484375 142.707031 166.851562 142.277344 C 166.46875 142.027344 165.925781 141.835938 165.261719 141.75 C 164.585938 141.660156 163.96875 141.441406 163.351562 141.085938 C 162.230469 140.46875 160.570312 138.835938 159.980469 137.808594 C 159.570312 137.070312 159.128906 136.585938 156.746094 134.144531 L 155.714844 133.085938 L 156.378906 132.628906 C 156.847656 132.304688 157.214844 132.171875 157.628906 132.171875 C 158.523438 132.171875 158.6875 132.070312 158.6875 131.453125 C 158.6875 131.15625 158.628906 130.847656 158.554688 130.761719 C 158.40625 130.597656 158.097656 129.054688 158.097656 128.421875 C 158.097656 128.15625 157.980469 127.847656 157.832031 127.714844 C 157.554688 127.449219 156.332031 127.171875 155.507812 127.171875 C 155.199219 127.171875 154.949219 127.070312 154.832031 126.90625 C 154.464844 126.390625 154.023438 126.257812 152.789062 126.347656 C 152.140625 126.390625 151.492188 126.496094 151.332031 126.582031 C 150.933594 126.789062 150.609375 126.773438 149.566406 126.4375 C 148.464844 126.082031 147.65625 126.066406 147.066406 126.363281 C 146.683594 126.566406 146.566406 126.566406 146.226562 126.378906 C 145.667969 126.097656 144.359375 126.007812 142.503906 126.125 Z M 171.207031 152.132812 C 171.085938 152.355469 171.058594 152.355469 171.042969 152.164062 C 171.042969 151.914062 171.191406 151.691406 171.308594 151.796875 C 171.339844 151.839844 171.292969 151.988281 171.207031 152.132812 Z M 171.207031 152.132812 " fill-opacity="1" fill-rule="nonzero"/></g><g clip-path="url(#a0d7864e6c)"><path fill="#ffffff" d="M 223.105469 165.003906 C 222.992188 164.773438 222.90625 164.109375 222.6875 163.886719 C 222.105469 163.667969 221.625 163.261719 221.023438 163.070312 C 220.59375 162.929688 220.003906 162.777344 219.746094 162.359375 C 219.398438 161.792969 219.675781 161.113281 220.171875 160.921875 C 220.136719 160.898438 220.109375 160.863281 220.085938 160.820312 C 219.738281 160.195312 219.839844 159.023438 220.730469 158.976562 C 220.773438 158.976562 220.8125 158.980469 220.847656 158.992188 C 220.882812 158.980469 220.917969 158.976562 220.960938 158.976562 C 221.207031 158.988281 221.289062 158.574219 221.414062 158.398438 C 221.582031 158.164062 221.796875 158.105469 222.070312 158.074219 C 222.460938 158.023438 223.007812 158.109375 223.363281 158.375 C 223.386719 158.367188 223.410156 158.359375 223.4375 158.359375 C 224.359375 158.289062 225.476562 158.859375 225.816406 159.738281 C 225.832031 159.777344 225.835938 159.808594 225.839844 159.839844 C 226.269531 160.652344 226.992188 161.46875 227.53125 162.1875 C 228.21875 163.113281 228.90625 164.015625 229.492188 165.015625 C 230.066406 166.003906 230.472656 167.078125 230.972656 168.105469 C 231.144531 168.453125 231.351562 168.789062 231.566406 169.117188 C 231.875 168.835938 232.242188 167.875 232.347656 167.664062 C 232.589844 167.191406 232.859375 166.558594 233.351562 166.292969 C 233.367188 166.285156 233.386719 166.277344 233.402344 166.273438 C 233.738281 165.476562 234.445312 164.898438 235.085938 164.347656 C 235.554688 163.949219 235.929688 163.4375 236.335938 162.980469 C 236.792969 162.472656 237.328125 162.089844 237.738281 161.535156 C 238.644531 160.316406 238.785156 159.101562 238.515625 157.636719 C 238.40625 157.039062 238.257812 156.390625 238.011719 155.832031 C 237.820312 155.402344 237.554688 155.035156 237.421875 154.578125 C 237.195312 153.816406 237.820312 152.941406 238.246094 152.378906 C 239.21875 151.09375 240.660156 150.96875 241.929688 151.652344 C 241.96875 151.609375 242.019531 151.574219 242.09375 151.558594 C 243.375 151.261719 244.417969 151.007812 245.726562 151.320312 C 245.835938 151.347656 245.949219 151.378906 246.058594 151.410156 C 246.078125 151.390625 246.097656 151.371094 246.121094 151.355469 C 246.628906 151.023438 247.316406 150.273438 247.457031 149.675781 C 247.503906 149.46875 247.8125 149.375 247.957031 149.542969 C 248.574219 150.273438 248.152344 151.386719 248.121094 152.234375 C 248.121094 152.234375 248.121094 152.238281 248.121094 152.242188 C 248.519531 152.457031 248.90625 152.695312 249.273438 152.957031 C 249.769531 152.203125 250.792969 151.550781 251.441406 151.039062 C 252.265625 150.382812 253.109375 150.011719 253.527344 151.175781 C 253.917969 152.269531 253.378906 153.730469 252.921875 154.71875 C 252.828125 154.917969 252.726562 155.105469 252.609375 155.285156 C 252.65625 155.332031 252.6875 155.398438 252.6875 155.484375 C 252.6875 157.019531 252.6875 158.554688 252.707031 160.089844 C 252.726562 161.46875 252.039062 162.566406 251.65625 163.847656 C 251.484375 164.421875 251.210938 164.964844 250.992188 165.519531 C 250.699219 166.253906 250.6875 167.027344 250.730469 167.804688 C 250.742188 168.097656 250.785156 168.386719 250.84375 168.671875 C 250.871094 168.703125 250.890625 168.746094 250.898438 168.796875 C 250.996094 169.367188 251.945312 169.742188 252.410156 169.984375 C 253.03125 170.308594 253.652344 170.601562 254.234375 170.996094 C 255.820312 172.078125 257.511719 172.953125 259.148438 173.96875 C 262.1875 175.851562 265.332031 178.089844 267.484375 180.988281 C 269.675781 183.9375 270.824219 187.4375 272.070312 190.851562 C 272.785156 192.820312 273.542969 194.570312 274.980469 196.125 C 275.574219 196.765625 276.300781 197.257812 277.070312 197.65625 C 277.695312 197.980469 278.550781 198.304688 279.34375 198.453125 C 279.394531 198.402344 279.464844 198.371094 279.558594 198.375 C 283.328125 198.652344 287.003906 198.421875 290.515625 196.929688 C 292.085938 196.265625 293.640625 195.6875 295.148438 194.875 C 295.796875 194.523438 296.425781 194.207031 297.125 193.957031 C 298.003906 193.636719 298.710938 193 299.550781 192.59375 C 301.195312 191.804688 305.378906 190.535156 305.757812 193.433594 C 305.886719 194.4375 305.046875 195.472656 304.386719 196.121094 C 303.386719 197.097656 301.90625 197.414062 300.617188 197.804688 C 300.515625 197.832031 300.433594 197.8125 300.371094 197.769531 C 299.253906 197.941406 298.15625 198.859375 297.183594 199.386719 C 295.917969 200.074219 294.636719 200.746094 293.332031 201.355469 C 290.847656 202.503906 288.078125 203 285.378906 203.328125 C 282.613281 203.664062 279.644531 203.882812 276.878906 203.480469 C 275.667969 203.304688 274.554688 202.949219 273.40625 202.542969 C 272.738281 202.308594 272.046875 202.042969 271.539062 201.550781 C 270.90625 201.988281 269.949219 202.011719 269.261719 202.335938 C 269.457031 203.039062 269.492188 203.75 269.085938 204.472656 C 268.546875 205.433594 267.292969 205.578125 266.3125 205.59375 C 264.742188 205.617188 263.144531 205.375 261.574219 205.328125 C 260.921875 205.308594 260.296875 205.390625 259.679688 205.425781 C 259.597656 205.503906 259.480469 205.53125 259.359375 205.4375 C 258.964844 205.441406 258.570312 205.414062 258.179688 205.308594 C 258.078125 205.339844 257.960938 205.320312 257.886719 205.214844 C 257.746094 205.164062 257.605469 205.101562 257.464844 205.023438 C 257.308594 204.941406 257.175781 204.84375 257.058594 204.730469 C 256.996094 204.789062 256.90625 204.8125 256.800781 204.769531 C 255.667969 204.34375 254.367188 205.082031 253.199219 205.082031 C 252.074219 205.082031 251.511719 204.082031 251.535156 203.050781 C 251.5625 202.121094 252.269531 201.714844 253.183594 201.554688 C 253.128906 201.535156 253.078125 201.511719 253.027344 201.496094 C 252.398438 201.28125 251.773438 201.1875 251.171875 200.890625 C 250.453125 200.53125 249.941406 199.859375 249.441406 199.253906 C 248.578125 198.207031 247.710938 196.921875 247.714844 195.523438 C 247.71875 194.835938 247.960938 194.132812 248.527344 193.855469 C 247.441406 193.335938 246.464844 192.746094 245.503906 191.980469 C 244.621094 191.28125 243.65625 190.621094 243.011719 189.691406 C 242.601562 190.726562 242.277344 191.84375 241.648438 192.757812 C 241.230469 193.363281 240.824219 193.976562 240.417969 194.589844 C 239.445312 196.046875 238.457031 197.503906 237.558594 199.003906 C 236.917969 200.078125 237.234375 202.117188 235.976562 202.761719 C 236.332031 203.40625 236.460938 204.179688 236.1875 204.882812 C 235.875 205.683594 234.902344 205.675781 234.332031 205.199219 C 234.320312 205.214844 234.3125 205.234375 234.300781 205.253906 C 234.082031 205.589844 233.644531 205.734375 233.265625 205.75 C 232.695312 205.773438 232.214844 205.425781 231.949219 204.953125 C 231.855469 205.050781 231.753906 205.140625 231.644531 205.214844 C 230.984375 205.65625 230.429688 205.058594 230.195312 204.484375 C 229.730469 203.351562 230.441406 202.476562 231.390625 202.007812 C 231.734375 201.34375 231.804688 200.613281 232.03125 199.898438 C 232.328125 198.984375 232.628906 198.078125 232.984375 197.1875 C 233.441406 196.027344 233.757812 194.882812 234.019531 193.671875 C 234.25 192.597656 234.476562 191.523438 234.714844 190.449219 C 234.855469 189.828125 234.925781 189.023438 235.257812 188.460938 C 235.273438 188.429688 235.296875 188.40625 235.320312 188.386719 C 235.5625 187.371094 235.632812 186.308594 235.449219 185.277344 C 235.25 184.148438 234.570312 183.125 234.21875 182.035156 C 233.648438 182.214844 232.832031 182.144531 232.421875 182.050781 C 230.085938 181.515625 229.21875 179.367188 228.320312 177.394531 C 227.824219 176.304688 227.074219 175.367188 226.558594 174.292969 C 226.027344 173.1875 225.867188 171.816406 225.667969 170.617188 C 225.539062 169.855469 225.390625 169.191406 225.007812 168.503906 C 224.691406 167.925781 224.285156 167.402344 223.976562 166.816406 C 223.664062 166.222656 223.402344 165.605469 223.105469 165.003906 " fill-opacity="1" fill-rule="nonzero"/></g><g clip-path="url(#621e45812f)"><path fill="#ffffff" d="M 137.574219 197.371094 C 137.574219 197.371094 138.757812 188.804688 131.96875 180.652344 C 125.179688 172.5 119.257812 176.527344 119.257812 176.527344 C 119.257812 176.527344 116.886719 173.210938 117.597656 171.394531 C 118.308594 169.578125 121.230469 166.894531 121.625 163.734375 C 122.019531 160.578125 123.835938 156.390625 122.097656 156.3125 C 120.363281 156.234375 117.125 166.261719 117.125 166.261719 C 117.125 166.261719 123.203125 149.363281 115.941406 158.679688 C 113.152344 162.257812 112.230469 167.683594 112.230469 167.683594 C 112.230469 167.683594 109.625 168.3125 109.308594 169.023438 C 108.992188 169.734375 105.597656 170.761719 103.621094 173.683594 C 101.648438 176.605469 101.332031 177.550781 101.964844 178.738281 C 102.597656 179.921875 105.042969 182.683594 106.859375 182.054688 L 107.730469 183.238281 C 107.730469 183.238281 105.675781 190.816406 112.859375 196.660156 C 112.859375 196.660156 113.886719 199.820312 113.414062 201.082031 C 112.941406 202.34375 111.28125 203.214844 111.28125 204.003906 C 111.28125 204.792969 113.097656 205.582031 114.914062 205.1875 C 116.730469 204.792969 115.863281 205.292969 115.863281 205.292969 C 115.863281 205.292969 121.46875 205.347656 122.179688 204.953125 C 122.890625 204.554688 122.890625 203.371094 122.890625 203.371094 C 122.890625 203.371094 124.074219 204.871094 124.46875 204.714844 C 124.863281 204.554688 131.101562 206.035156 131.730469 205.296875 C 132.363281 204.554688 133.863281 204.953125 133.863281 204.953125 C 133.863281 204.953125 135.839844 202.425781 136.46875 201.160156 C 137.101562 199.898438 137.433594 202.976562 140.023438 201.398438 C 142.609375 199.820312 142.867188 194.054688 137.574219 197.371094 " fill-opacity="1" fill-rule="nonzero"/></g><g clip-path="url(#2450b3ce48)"><path fill="#ffffff" d="M 192.429688 146.488281 L 189.78125 146.75 L 189.054688 145.691406 L 193.167969 140.75 C 193.554688 140.929688 193.917969 141.089844 194.261719 141.246094 Z M 186.3125 120.261719 C 186.3125 121.066406 185.097656 121.066406 185.097656 120.261719 C 185.097656 119.457031 186.3125 119.457031 186.3125 120.261719 Z M 212.511719 145.066406 L 210.90625 144.359375 C 210.84375 144.332031 204.828125 141.609375 201.140625 134.996094 C 197.792969 128.992188 192.296875 129.535156 190.644531 124.425781 C 189.730469 121.617188 190.308594 121.175781 193.058594 119.0625 C 192.195312 118.578125 191.226562 118.164062 190.1875 118.457031 C 188.15625 116.039062 185.164062 116.6875 183.285156 118.699219 C 180.667969 121.511719 179.683594 129.316406 183.117188 134.410156 C 185.382812 137.773438 188.203125 138.539062 192.570312 140.484375 L 188.460938 145.425781 L 184.570312 147.617188 C 184.289062 147.78125 184.402344 148.210938 184.726562 148.210938 C 184.859375 148.210938 188.449219 146.15625 188.566406 146.085938 C 190.371094 148.738281 190.414062 148.992188 190.761719 148.757812 C 191.097656 148.527344 190.792969 148.238281 190.183594 147.339844 L 192.558594 147.105469 C 194.84375 149.035156 194.976562 149.292969 195.25 148.96875 C 195.527344 148.640625 195.242188 148.546875 193.03125 146.679688 L 194.839844 141.511719 C 197.261719 142.613281 199.0625 143.457031 200.285156 144.1875 C 200.277344 143.746094 200.296875 142.703125 199.96875 141.066406 C 201.574219 142.296875 205.441406 144.640625 210.761719 144.960938 L 212.511719 145.066406 " fill-opacity="1" fill-rule="nonzero"/></g><g fill="#2b1511" fill-opacity="1"><g transform="translate(44.789236, 244.170234)"><g><path d="M 13.109375 -14.578125 C 14.359375 -14.578125 15.316406 -14.867188 15.984375 -15.453125 C 16.660156 -16.035156 17 -16.925781 17 -18.125 C 17 -19.257812 16.648438 -20.132812 15.953125 -20.75 C 15.253906 -21.363281 14.226562 -21.671875 12.875 -21.671875 C 12.394531 -21.671875 12 -21.660156 11.6875 -21.640625 C 11.375 -21.628906 11.050781 -21.597656 10.71875 -21.546875 L 10.71875 -14.578125 Z M 10.765625 -0.171875 C 10.441406 -0.0859375 9.925781 -0.00390625 9.21875 0.078125 C 8.519531 0.171875 7.828125 0.21875 7.140625 0.21875 C 6.453125 0.21875 5.84375 0.164062 5.3125 0.0625 C 4.789062 -0.0390625 4.347656 -0.222656 3.984375 -0.484375 C 3.628906 -0.753906 3.363281 -1.128906 3.1875 -1.609375 C 3.007812 -2.085938 2.921875 -2.71875 2.921875 -3.5 L 2.921875 -24.640625 C 2.921875 -25.265625 3.09375 -25.75 3.4375 -26.09375 C 3.78125 -26.4375 4.25 -26.710938 4.84375 -26.921875 C 5.863281 -27.285156 7.023438 -27.546875 8.328125 -27.703125 C 9.628906 -27.867188 10.9375 -27.953125 12.25 -27.953125 C 16.375 -27.953125 19.53125 -27.066406 21.71875 -25.296875 C 23.90625 -23.535156 25 -21.144531 25 -18.125 C 25 -16.664062 24.765625 -15.34375 24.296875 -14.15625 C 23.835938 -12.976562 23.148438 -11.960938 22.234375 -11.109375 C 21.316406 -10.253906 20.160156 -9.59375 18.765625 -9.125 C 17.378906 -8.664062 15.773438 -8.4375 13.953125 -8.4375 L 10.765625 -8.4375 Z M 10.765625 -0.171875 "/></g></g></g><g fill="#2b1511" fill-opacity="1"><g transform="translate(70.860373, 244.170234)"><g><path d="M 2.921875 -23.015625 C 2.921875 -24.304688 3.289062 -25.320312 4.03125 -26.0625 C 4.78125 -26.8125 5.800781 -27.1875 7.09375 -27.1875 L 21.90625 -27.1875 C 22.113281 -26.863281 22.296875 -26.429688 22.453125 -25.890625 C 22.617188 -25.347656 22.703125 -24.78125 22.703125 -24.1875 C 22.703125 -23.050781 22.453125 -22.242188 21.953125 -21.765625 C 21.460938 -21.285156 20.816406 -21.046875 20.015625 -21.046875 L 10.546875 -21.046875 L 10.546875 -16.875 L 20.640625 -16.875 C 20.847656 -16.539062 21.035156 -16.113281 21.203125 -15.59375 C 21.367188 -15.070312 21.453125 -14.507812 21.453125 -13.90625 C 21.453125 -12.769531 21.210938 -11.960938 20.734375 -11.484375 C 20.253906 -11.003906 19.609375 -10.765625 18.796875 -10.765625 L 10.546875 -10.765625 L 10.546875 -6.0625 L 22.078125 -6.0625 C 22.285156 -5.726562 22.472656 -5.289062 22.640625 -4.75 C 22.804688 -4.21875 22.890625 -3.648438 22.890625 -3.046875 C 22.890625 -1.910156 22.640625 -1.09375 22.140625 -0.59375 C 21.648438 -0.101562 21 0.140625 20.1875 0.140625 L 7.09375 0.140625 C 5.800781 0.140625 4.78125 -0.234375 4.03125 -0.984375 C 3.289062 -1.734375 2.921875 -2.75 2.921875 -4.03125 Z M 2.921875 -23.015625 "/></g></g></g><g fill="#2b1511" fill-opacity="1"><g transform="translate(95.450705, 244.170234)"><g><path d="M 1.65625 -20.90625 C 1.445312 -21.238281 1.253906 -21.6875 1.078125 -22.25 C 0.898438 -22.820312 0.8125 -23.421875 0.8125 -24.046875 C 0.8125 -25.210938 1.070312 -26.050781 1.59375 -26.5625 C 2.113281 -27.070312 2.796875 -27.328125 3.640625 -27.328125 L 23.203125 -27.328125 C 23.410156 -26.992188 23.601562 -26.539062 23.78125 -25.96875 C 23.957031 -25.40625 24.046875 -24.8125 24.046875 -24.1875 C 24.046875 -23.019531 23.785156 -22.179688 23.265625 -21.671875 C 22.742188 -21.160156 22.0625 -20.90625 21.21875 -20.90625 L 16.25 -20.90625 L 16.25 -0.171875 C 15.914062 -0.0859375 15.394531 -0.00390625 14.6875 0.078125 C 13.988281 0.171875 13.296875 0.21875 12.609375 0.21875 C 11.921875 0.21875 11.3125 0.164062 10.78125 0.0625 C 10.257812 -0.0390625 9.820312 -0.222656 9.46875 -0.484375 C 9.113281 -0.753906 8.84375 -1.128906 8.65625 -1.609375 C 8.476562 -2.085938 8.390625 -2.71875 8.390625 -3.5 L 8.390625 -20.90625 Z M 1.65625 -20.90625 "/></g></g></g><g fill="#2b1511" fill-opacity="1"><g transform="translate(120.406089, 244.170234)"><g/></g></g><g clip-path="url(#226ab10666)"><path fill="#ffa07a" d="M 150.394531 211.96875 C 150.3125 211.96875 150.226562 211.972656 150.144531 211.980469 C 146.78125 212.5625 144.933594 216.117188 144.664062 219.25 C 144.273438 222.097656 145.527344 225.753906 148.648438 226.390625 C 149.101562 226.476562 149.574219 226.4375 150.015625 226.316406 C 153.777344 225.054688 155.460938 220.601562 154.917969 216.910156 C 154.761719 214.527344 152.964844 211.9375 150.394531 211.96875 Z M 136.140625 212.121094 C 134.050781 212.171875 132.421875 214.292969 132.089844 216.285156 C 131.390625 220.234375 133.1875 225.140625 137.300781 226.390625 C 137.6875 226.476562 138.085938 226.484375 138.476562 226.421875 C 141.253906 225.960938 142.433594 222.84375 142.316406 220.324219 C 142.234375 217.003906 140.507812 213.167969 137.0625 212.234375 C 136.746094 212.148438 136.4375 212.113281 136.140625 212.121094 Z M 159.503906 223.335938 C 155.886719 223.554688 153.410156 227.164062 153.054688 230.53125 C 152.578125 232.960938 153.871094 236.214844 156.644531 236.40625 C 160.511719 236.359375 163.148438 232.226562 163.261719 228.671875 C 163.503906 226.320312 162.121094 223.46875 159.503906 223.335938 Z M 127.847656 224.136719 C 126.308594 224.125 124.796875 225.046875 124.292969 226.609375 C 122.953125 230.792969 125.644531 236.09375 130.078125 236.972656 C 131.925781 237.289062 133.550781 235.871094 134.011719 234.160156 C 134.984375 230.503906 132.988281 226.261719 129.609375 224.601562 C 129.058594 224.292969 128.449219 224.144531 127.847656 224.136719 Z M 144.0625 231.640625 C 141.046875 231.648438 137.980469 233.179688 136.027344 235.457031 C 133.917969 238.113281 132.191406 241.203125 131.515625 244.554688 C 130.695312 246.96875 132.554688 249.746094 135.132812 249.761719 C 138.238281 249.847656 140.902344 247.71875 143.988281 247.558594 C 146.605469 247.160156 148.949219 248.519531 151.304688 249.414062 C 153.308594 250.269531 156.078125 249.941406 157.101562 247.785156 C 157.90625 245.585938 156.71875 243.242188 155.738281 241.289062 C 153.738281 238.121094 151.59375 234.792969 148.3125 232.8125 C 146.996094 232 145.535156 231.636719 144.0625 231.640625 Z M 144.0625 231.640625 " fill-opacity="1" fill-rule="nonzero"/></g><g fill="#2b1511" fill-opacity="1"><g transform="translate(165.834332, 244.170234)"><g><path d="M 27.234375 -0.171875 C 26.910156 -0.0859375 26.394531 -0.00390625 25.6875 0.078125 C 24.988281 0.171875 24.296875 0.21875 23.609375 0.21875 C 22.921875 0.21875 22.3125 0.164062 21.78125 0.0625 C 21.257812 -0.0390625 20.816406 -0.222656 20.453125 -0.484375 C 20.097656 -0.753906 19.832031 -1.128906 19.65625 -1.609375 C 19.476562 -2.085938 19.390625 -2.71875 19.390625 -3.5 L 19.390625 -10.5 L 10.765625 -10.5 L 10.765625 -0.171875 C 10.441406 -0.0859375 9.925781 -0.00390625 9.21875 0.078125 C 8.519531 0.171875 7.828125 0.21875 7.140625 0.21875 C 6.453125 0.21875 5.84375 0.164062 5.3125 0.0625 C 4.789062 -0.0390625 4.347656 -0.222656 3.984375 -0.484375 C 3.628906 -0.753906 3.363281 -1.128906 3.1875 -1.609375 C 3.007812 -2.085938 2.921875 -2.71875 2.921875 -3.5 L 2.921875 -27.1875 C 3.242188 -27.25 3.765625 -27.332031 4.484375 -27.4375 C 5.203125 -27.539062 5.890625 -27.59375 6.546875 -27.59375 C 7.234375 -27.59375 7.835938 -27.539062 8.359375 -27.4375 C 8.890625 -27.332031 9.332031 -27.144531 9.6875 -26.875 C 10.050781 -26.601562 10.320312 -26.226562 10.5 -25.75 C 10.675781 -25.28125 10.765625 -24.65625 10.765625 -23.875 L 10.765625 -16.6875 L 19.390625 -16.6875 L 19.390625 -27.1875 C 19.710938 -27.25 20.234375 -27.332031 20.953125 -27.4375 C 21.671875 -27.539062 22.359375 -27.59375 23.015625 -27.59375 C 23.703125 -27.59375 24.304688 -27.539062 24.828125 -27.4375 C 25.359375 -27.332031 25.800781 -27.144531 26.15625 -26.875 C 26.519531 -26.601562 26.789062 -26.226562 26.96875 -25.75 C 27.144531 -25.28125 27.234375 -24.65625 27.234375 -23.875 Z M 27.234375 -0.171875 "/></g></g></g><g fill="#2b1511" fill-opacity="1"><g transform="translate(195.988902, 244.170234)"><g><path d="M 8.703125 -26.390625 C 9.210938 -26.679688 9.984375 -26.960938 11.015625 -27.234375 C 12.046875 -27.503906 13.085938 -27.640625 14.140625 -27.640625 C 15.628906 -27.640625 16.945312 -27.421875 18.09375 -26.984375 C 19.25 -26.554688 19.992188 -25.878906 20.328125 -24.953125 C 20.867188 -23.390625 21.453125 -21.578125 22.078125 -19.515625 C 22.703125 -17.453125 23.328125 -15.320312 23.953125 -13.125 C 24.585938 -10.925781 25.203125 -8.753906 25.796875 -6.609375 C 26.398438 -4.472656 26.925781 -2.582031 27.375 -0.9375 C 27.007812 -0.519531 26.46875 -0.1875 25.75 0.0625 C 25.039062 0.320312 24.191406 0.453125 23.203125 0.453125 C 22.484375 0.453125 21.875 0.390625 21.375 0.265625 C 20.882812 0.148438 20.484375 -0.0234375 20.171875 -0.265625 C 19.859375 -0.503906 19.601562 -0.816406 19.40625 -1.203125 C 19.207031 -1.597656 19.035156 -2.050781 18.890625 -2.5625 L 18.078125 -5.65625 L 9.96875 -5.65625 C 9.726562 -4.757812 9.488281 -3.832031 9.25 -2.875 C 9.007812 -1.914062 8.769531 -0.988281 8.53125 -0.09375 C 8.101562 0.0625 7.65625 0.191406 7.1875 0.296875 C 6.726562 0.398438 6.171875 0.453125 5.515625 0.453125 C 3.992188 0.453125 2.863281 0.191406 2.125 -0.328125 C 1.394531 -0.859375 1.03125 -1.585938 1.03125 -2.515625 C 1.03125 -2.929688 1.085938 -3.347656 1.203125 -3.765625 C 1.328125 -4.179688 1.460938 -4.675781 1.609375 -5.25 C 1.816406 -6.0625 2.109375 -7.0625 2.484375 -8.25 C 2.859375 -9.445312 3.269531 -10.738281 3.71875 -12.125 C 4.164062 -13.519531 4.644531 -14.953125 5.15625 -16.421875 C 5.664062 -17.890625 6.144531 -19.273438 6.59375 -20.578125 C 7.039062 -21.878906 7.453125 -23.035156 7.828125 -24.046875 C 8.203125 -25.066406 8.492188 -25.847656 8.703125 -26.390625 Z M 14.09375 -20.59375 C 13.675781 -19.34375 13.203125 -17.945312 12.671875 -16.40625 C 12.148438 -14.863281 11.679688 -13.300781 11.265625 -11.71875 L 16.828125 -11.71875 C 16.410156 -13.332031 15.984375 -14.90625 15.546875 -16.4375 C 15.117188 -17.976562 14.722656 -19.363281 14.359375 -20.59375 Z M 14.09375 -20.59375 "/></g></g></g><g fill="#2b1511" fill-opacity="1"><g transform="translate(224.124198, 244.170234)"><g><path d="M 10.71875 -8.796875 L 10.71875 -0.171875 C 10.394531 -0.0859375 9.878906 -0.00390625 9.171875 0.078125 C 8.472656 0.171875 7.78125 0.21875 7.09375 0.21875 C 6.40625 0.21875 5.796875 0.164062 5.265625 0.0625 C 4.742188 -0.0390625 4.3125 -0.222656 3.96875 -0.484375 C 3.625 -0.753906 3.363281 -1.128906 3.1875 -1.609375 C 3.007812 -2.085938 2.921875 -2.71875 2.921875 -3.5 L 2.921875 -24.640625 C 2.921875 -25.265625 3.09375 -25.75 3.4375 -26.09375 C 3.78125 -26.4375 4.25 -26.710938 4.84375 -26.921875 C 5.863281 -27.285156 7.046875 -27.546875 8.390625 -27.703125 C 9.734375 -27.867188 11.171875 -27.953125 12.703125 -27.953125 C 16.828125 -27.953125 19.9375 -27.082031 22.03125 -25.34375 C 24.125 -23.613281 25.171875 -21.269531 25.171875 -18.3125 C 25.171875 -16.457031 24.691406 -14.867188 23.734375 -13.546875 C 22.773438 -12.234375 21.640625 -11.21875 20.328125 -10.5 C 21.398438 -9.03125 22.457031 -7.648438 23.5 -6.359375 C 24.550781 -5.078125 25.378906 -3.914062 25.984375 -2.875 C 25.679688 -1.820312 25.132812 -1.019531 24.34375 -0.46875 C 23.550781 0.0820312 22.660156 0.359375 21.671875 0.359375 C 21.015625 0.359375 20.445312 0.28125 19.96875 0.125 C 19.488281 -0.0195312 19.066406 -0.222656 18.703125 -0.484375 C 18.347656 -0.753906 18.019531 -1.082031 17.71875 -1.46875 C 17.425781 -1.863281 17.144531 -2.285156 16.875 -2.734375 L 13.109375 -8.796875 Z M 13.546875 -14.765625 C 14.679688 -14.765625 15.578125 -15.054688 16.234375 -15.640625 C 16.898438 -16.222656 17.234375 -17.082031 17.234375 -18.21875 C 17.234375 -19.351562 16.863281 -20.210938 16.125 -20.796875 C 15.394531 -21.378906 14.238281 -21.671875 12.65625 -21.671875 C 12.207031 -21.671875 11.847656 -21.65625 11.578125 -21.625 C 11.304688 -21.59375 11.007812 -21.550781 10.6875 -21.5 L 10.6875 -14.765625 Z M 13.546875 -14.765625 "/></g></g></g><g fill="#2b1511" fill-opacity="1"><g transform="translate(251.451777, 244.170234)"><g><path d="M 10.546875 -5.609375 C 10.960938 -5.492188 11.5 -5.410156 12.15625 -5.359375 C 12.8125 -5.316406 13.441406 -5.296875 14.046875 -5.296875 C 15.242188 -5.296875 16.238281 -5.539062 17.03125 -6.03125 C 17.820312 -6.53125 18.21875 -7.300781 18.21875 -8.34375 C 18.21875 -9.332031 17.890625 -10.035156 17.234375 -10.453125 C 16.578125 -10.867188 15.570312 -11.078125 14.21875 -11.078125 L 10.546875 -11.078125 Z M 10.546875 -16.5625 L 13.828125 -16.5625 C 15.109375 -16.5625 16.039062 -16.800781 16.625 -17.28125 C 17.207031 -17.757812 17.5 -18.460938 17.5 -19.390625 C 17.5 -20.191406 17.160156 -20.832031 16.484375 -21.3125 C 15.816406 -21.789062 14.8125 -22.03125 13.46875 -22.03125 C 13.019531 -22.03125 12.503906 -22.015625 11.921875 -21.984375 C 11.335938 -21.953125 10.878906 -21.910156 10.546875 -21.859375 Z M 13.46875 0.71875 C 12.957031 0.71875 12.359375 0.703125 11.671875 0.671875 C 10.984375 0.640625 10.269531 0.578125 9.53125 0.484375 C 8.800781 0.398438 8.078125 0.289062 7.359375 0.15625 C 6.640625 0.0195312 5.984375 -0.164062 5.390625 -0.40625 C 3.742188 -1.03125 2.921875 -2.125 2.921875 -3.6875 L 2.921875 -24.640625 C 2.921875 -25.265625 3.09375 -25.75 3.4375 -26.09375 C 3.78125 -26.4375 4.25 -26.710938 4.84375 -26.921875 C 5.863281 -27.285156 7.132812 -27.546875 8.65625 -27.703125 C 10.1875 -27.867188 11.757812 -27.953125 13.375 -27.953125 C 17.195312 -27.953125 20.140625 -27.304688 22.203125 -26.015625 C 24.273438 -24.734375 25.3125 -22.75 25.3125 -20.0625 C 25.3125 -18.71875 24.921875 -17.554688 24.140625 -16.578125 C 23.359375 -15.609375 22.3125 -14.898438 21 -14.453125 C 22.5 -14.035156 23.75 -13.269531 24.75 -12.15625 C 25.75 -11.050781 26.25 -9.660156 26.25 -7.984375 C 26.25 -5.023438 25.148438 -2.832031 22.953125 -1.40625 C 20.753906 0.0078125 17.59375 0.71875 13.46875 0.71875 Z M 13.46875 0.71875 "/></g></g></g><g fill="#2b1511" fill-opacity="1"><g transform="translate(279.228081, 244.170234)"><g><path d="M 1.578125 -13.640625 C 1.578125 -15.972656 1.941406 -18.035156 2.671875 -19.828125 C 3.398438 -21.628906 4.398438 -23.132812 5.671875 -24.34375 C 6.941406 -25.550781 8.4375 -26.46875 10.15625 -27.09375 C 11.882812 -27.726562 13.75 -28.046875 15.75 -28.046875 C 17.75 -28.046875 19.609375 -27.726562 21.328125 -27.09375 C 23.054688 -26.46875 24.5625 -25.550781 25.84375 -24.34375 C 27.132812 -23.132812 28.144531 -21.628906 28.875 -19.828125 C 29.601562 -18.035156 29.96875 -15.972656 29.96875 -13.640625 C 29.96875 -11.304688 29.609375 -9.234375 28.890625 -7.421875 C 28.179688 -5.617188 27.191406 -4.109375 25.921875 -2.890625 C 24.648438 -1.679688 23.144531 -0.757812 21.40625 -0.125 C 19.664062 0.5 17.78125 0.8125 15.75 0.8125 C 13.71875 0.8125 11.832031 0.488281 10.09375 -0.15625 C 8.363281 -0.800781 6.867188 -1.734375 5.609375 -2.953125 C 4.347656 -4.179688 3.359375 -5.691406 2.640625 -7.484375 C 1.929688 -9.285156 1.578125 -11.335938 1.578125 -13.640625 Z M 9.640625 -13.640625 C 9.640625 -10.921875 10.191406 -8.882812 11.296875 -7.53125 C 12.410156 -6.1875 13.894531 -5.515625 15.75 -5.515625 C 17.632812 -5.515625 19.128906 -6.1875 20.234375 -7.53125 C 21.347656 -8.882812 21.90625 -10.921875 21.90625 -13.640625 C 21.90625 -16.335938 21.359375 -18.359375 20.265625 -19.703125 C 19.171875 -21.046875 17.679688 -21.71875 15.796875 -21.71875 C 13.941406 -21.71875 12.453125 -21.050781 11.328125 -19.71875 C 10.203125 -18.382812 9.640625 -16.359375 9.640625 -13.640625 Z M 9.640625 -13.640625 "/></g></g></g><g fill="#2b1511" fill-opacity="1"><g transform="translate(310.773711, 244.170234)"><g><path d="M 10.71875 -8.796875 L 10.71875 -0.171875 C 10.394531 -0.0859375 9.878906 -0.00390625 9.171875 0.078125 C 8.472656 0.171875 7.78125 0.21875 7.09375 0.21875 C 6.40625 0.21875 5.796875 0.164062 5.265625 0.0625 C 4.742188 -0.0390625 4.3125 -0.222656 3.96875 -0.484375 C 3.625 -0.753906 3.363281 -1.128906 3.1875 -1.609375 C 3.007812 -2.085938 2.921875 -2.71875 2.921875 -3.5 L 2.921875 -24.640625 C 2.921875 -25.265625 3.09375 -25.75 3.4375 -26.09375 C 3.78125 -26.4375 4.25 -26.710938 4.84375 -26.921875 C 5.863281 -27.285156 7.046875 -27.546875 8.390625 -27.703125 C 9.734375 -27.867188 11.171875 -27.953125 12.703125 -27.953125 C 16.828125 -27.953125 19.9375 -27.082031 22.03125 -25.34375 C 24.125 -23.613281 25.171875 -21.269531 25.171875 -18.3125 C 25.171875 -16.457031 24.691406 -14.867188 23.734375 -13.546875 C 22.773438 -12.234375 21.640625 -11.21875 20.328125 -10.5 C 21.398438 -9.03125 22.457031 -7.648438 23.5 -6.359375 C 24.550781 -5.078125 25.378906 -3.914062 25.984375 -2.875 C 25.679688 -1.820312 25.132812 -1.019531 24.34375 -0.46875 C 23.550781 0.0820312 22.660156 0.359375 21.671875 0.359375 C 21.015625 0.359375 20.445312 0.28125 19.96875 0.125 C 19.488281 -0.0195312 19.066406 -0.222656 18.703125 -0.484375 C 18.347656 -0.753906 18.019531 -1.082031 17.71875 -1.46875 C 17.425781 -1.863281 17.144531 -2.285156 16.875 -2.734375 L 13.109375 -8.796875 Z M 13.546875 -14.765625 C 14.679688 -14.765625 15.578125 -15.054688 16.234375 -15.640625 C 16.898438 -16.222656 17.234375 -17.082031 17.234375 -18.21875 C 17.234375 -19.351562 16.863281 -20.210938 16.125 -20.796875 C 15.394531 -21.378906 14.238281 -21.671875 12.65625 -21.671875 C 12.207031 -21.671875 11.847656 -21.65625 11.578125 -21.625 C 11.304688 -21.59375 11.007812 -21.550781 10.6875 -21.5 L 10.6875 -14.765625 Z M 13.546875 -14.765625 "/></g></g></g></svg>